<svg xmlns="http://www.w3.org/2000/svg">

  <svg id="weather" data-name="weather" viewBox="0 0 28 28">
    <path d="M22.5,10.9c-1.1,0.3-2,0.8-1.9,2c0.1,1.3,1.1,1.7,2.2,1.8c0.1,4.6-3.7,9.9-7.9,11.3c-1.9,0.6-3.8-0.1-5.5-0.8
      C4.1,23,1.3,17.8,2.1,12.1C2.8,7,7.1,2.9,12.3,2c1.6-0.3,2.9,0,4.2,0.9C19.6,4.8,21.6,7.4,22.5,10.9z M13.9,16.4
      c0-1.3-1-2.3-2.3-2.3c-1.2,0-2.3,1-2.3,2.2c0,1.3,0.9,2.3,2.3,2.4C12.8,18.7,13.9,17.7,13.9,16.4z M14.3,6.7c0-0.8-0.5-1.3-1.2-1.2
      c-0.5,0.1-1,0.6-1.1,1.1c-0.2,0.7,0.3,1.2,1.1,1.2C13.9,7.9,14.3,7.4,14.3,6.7z" />
    <path d="M14,28C6.3,28,0,21.7,0,14S6.3,0,14,0s14,6.3,14,14S21.7,28,14,28z M14,2C7.4,2,2,7.4,2,14s5.4,12,12,12s12-5.4,12-12
      S20.6,2,14,2z" />
  </svg>

  <svg id="notification" data-name="notification" viewBox="0 0 26 28">
    <path d="M24.9,5.6c0.2-0.2,0.4-0.4,0.6-0.7c0.4-0.7,0.6-1.6,0.4-2.4c-0.2-0.8-0.7-1.6-1.5-2c-0.7-0.4-1.6-0.6-2.4-0.4
      c-0.8,0.2-1.5,0.7-2,1.5c-0.1,0.1-0.1,0.2-0.2,0.4c-4.4-1.1-7.6,2.7-9.9,5.4c-1,1.2-1.9,2.2-2.5,2.4C6.9,9.8,6.5,9.9,6.1,10
      c-2.8,0.7-4.7,1.1-5.5,2.4l0,0c-0.1,0.1-0.1,0.2-0.2,0.2c-0.8,1.3-0.2,3.2,1.6,5.4c1.6,2,4.1,4.1,7.1,5.8c0.4,1.2,1.2,2.2,2.3,2.9
      c0.8,0.5,1.8,0.8,2.7,0.8c0.4,0,0.9,0,1.3-0.2c0.3-0.1,0.5-0.1,0.7-0.2c1.7,0.5,3.1,0.8,4.3,0.8c1.5,0,2.6-0.4,3.2-1.3
      c0.1-0.1,0.1-0.2,0.1-0.3l0,0c0.8-1.3,0.3-3.2-0.4-6c-0.1-0.4-0.2-0.8-0.3-1.3c-0.1-0.6,0.4-1.9,1-3.3C25.1,12.9,26.8,8.9,24.9,5.6z
      M20.9,2.2c0.3-0.5,0.7-0.8,1.3-0.9c0.5-0.1,1.1,0,1.6,0.2c0.5,0.3,0.8,0.7,0.9,1.3c0.1,0.5,0,1.1-0.2,1.6c-0.1,0.1-0.2,0.2-0.3,0.3
      c-0.5-0.6-1.2-1.2-2-1.7c-0.4-0.3-0.9-0.5-1.3-0.6C20.9,2.3,20.9,2.2,20.9,2.2z M8.9,22.4C6.4,20.8,4.4,19,3,17.3
      c-1.4-1.7-2-3.2-1.5-4c0.5-0.8,2.1-1,4.3-0.5c2.5,0.5,5.4,1.8,8.3,3.5c0.5,0.3,0.9,0.6,1.3,0.9c-0.8-0.2-1.7-0.2-2.5,0
      c-1.4,0.3-2.5,1.2-3.3,2.4C9.1,20.4,8.9,21.4,8.9,22.4z M15.1,26.3c-1.1,0.3-2.2,0.1-3.1-0.5c-1.9-1.2-2.6-3.7-1.4-5.6
      c0.6-0.9,1.5-1.6,2.5-1.9c0.3-0.1,0.7-0.1,1-0.1c0.7,0,1.5,0.2,2.1,0.6c1.9,1.2,2.6,3.7,1.4,5.6C17.1,25.4,16.2,26,15.1,26.3z
      M22.6,26.1c-0.5,0.9-2.5,1-5.1,0.3c0.5-0.4,0.8-0.8,1.2-1.3c1-1.7,1-3.7,0.1-5.3c0.9,0.8,1.6,1.5,2.3,2.3
      C22.5,23.8,23,25.3,22.6,26.1z M22.9,15.4c-0.7,1.7-1.2,3.1-1,4c0.1,0.4,0.2,0.9,0.3,1.3c0.1,0.5,0.2,0.9,0.3,1.3
      c-0.2-0.2-0.4-0.5-0.6-0.7c-1.7-2-4.3-4.2-7.3-6c-3-1.8-6.1-3.1-8.7-3.7c-0.3-0.1-0.6-0.1-0.9-0.2c0.4-0.1,0.9-0.2,1.3-0.3
      c0.4-0.1,0.8-0.2,1.3-0.3c1-0.2,1.9-1.4,3.1-2.8c2.7-3.1,6-7,10.8-4.1C26.3,6.9,24.4,11.6,22.9,15.4z" />
    <path d="M22.6,26.1c-0.5,0.9-2.5,1-5.1,0.3c0.5-0.4,0.8-0.8,1.2-1.3c1-1.7,1-3.7,0.1-5.3c0.9,0.8,1.6,1.5,2.3,2.3
      C22.5,23.8,23,25.3,22.6,26.1z" />
    <path d="M15.4,17.2c-0.8-0.2-1.7-0.2-2.5,0c-1.4,0.3-2.5,1.2-3.3,2.4c-0.5,0.9-0.8,1.8-0.8,2.8C6.4,20.8,4.4,19,3,17.3
      c-1.4-1.7-2-3.2-1.5-4c0.5-0.8,2.1-1,4.3-0.5c2.5,0.5,5.4,1.8,8.3,3.5C14.5,16.6,14.9,16.9,15.4,17.2z" />
  </svg>

</svg>